#N canvas 514 187 450 300 10;
#X obj 99 57 metro;
#X obj 91 28 inlet;
#X obj 151 26 inlet;
#X obj 101 101 i;
#X obj 155 101 + 1;
#X obj 94 193 outlet;
#X obj 98 146 % 8;
#X connect 0 0 3 0;
#X connect 1 0 0 0;
#X connect 2 0 0 1;
#X connect 3 0 4 0;
#X connect 3 0 6 0;
#X connect 4 0 3 1;
#X connect 6 0 5 0;
